<svg width="30" height="30" viewBox="0 0 30 30" fill="none" xmlns="http://www.w3.org/2000/svg">
<path fill-rule="evenodd" clip-rule="evenodd" d="M8.75 2.8125C9.26777 2.8125 9.6875 3.23223 9.6875 3.75V5H20.3125V3.75C20.3125 3.23223 20.7322 2.8125 21.25 2.8125C21.7678 2.8125 22.1875 3.23223 22.1875 3.75V5H23.75C25.8211 5 27.5 6.67893 27.5 8.75V23.75C27.5 25.8211 25.8211 27.5 23.75 27.5H6.25C4.17893 27.5 2.5 25.8211 2.5 23.75V8.75C2.5 6.67893 4.17893 5 6.25 5H7.8125V3.75C7.8125 3.23223 8.23223 2.8125 8.75 2.8125ZM20.3125 6.875V8.75C20.3125 9.26777 20.7322 9.6875 21.25 9.6875C21.7678 9.6875 22.1875 9.26777 22.1875 8.75V6.875H23.75C24.7855 6.875 25.625 7.71447 25.625 8.75V12.8125H4.375V8.75C4.375 7.71447 5.21447 6.875 6.25 6.875H7.8125V8.75C7.8125 9.26777 8.23223 9.6875 8.75 9.6875C9.26777 9.6875 9.6875 9.26777 9.6875 8.75V6.875H20.3125ZM4.375 14.6875V23.75C4.375 24.7855 5.21447 25.625 6.25 25.625H23.75C24.7855 25.625 25.625 24.7855 25.625 23.75V14.6875H4.375Z" fill="#040404"/>
</svg>
