<svg width="20" height="20" viewBox="0 0 20 20" fill="none" xmlns="http://www.w3.org/2000/svg">
<rect width="20" height="20" rx="10" fill="#44CB71"/>
<path d="M9.6565 11.1004L13.083 7.67383C13.2794 7.47746 13.2794 7.15908 13.083 6.96271C12.8867 6.76634 12.5683 6.76634 12.3719 6.96271L8.94538 10.3893L9.6565 11.1004Z" fill="white"/>
<path d="M6.99978 12.2363C6.69902 12.3542 6.34386 12.2916 6.10083 12.0486L4.36719 10.315C4.17082 10.1186 3.85244 10.1186 3.65607 10.315C3.4597 10.5113 3.4597 10.8297 3.65607 11.0261L5.38971 12.7597C6.02881 13.3988 7.02037 13.4707 7.7387 12.9752L6.99978 12.2363Z" fill="white"/>
<path fill-rule="evenodd" clip-rule="evenodd" d="M16.4349 6.92902C16.6313 7.12539 16.6313 7.44377 16.4349 7.64014L11.3155 12.7595C10.5955 13.4796 9.4281 13.4796 8.70807 12.7595L6.97443 11.0259C6.77806 10.8295 6.77806 10.5112 6.97443 10.3148C7.1708 10.1184 7.48918 10.1184 7.68555 10.3148L9.41919 12.0484C9.74647 12.3757 10.2771 12.3757 10.6044 12.0484L15.7238 6.92902C15.9202 6.73265 16.2386 6.73265 16.4349 6.92902Z" fill="white"/>
</svg>
