<svg width="20" height="20" viewBox="0 0 20 20" fill="none" xmlns="http://www.w3.org/2000/svg">
<rect width="20" height="20" rx="10" fill="#44CB71"/>
<path d="M9.65626 11.1004L13.0828 7.67383C13.2792 7.47746 13.2792 7.15908 13.0828 6.96271C12.8864 6.76634 12.5681 6.76634 12.3717 6.96271L8.94514 10.3893L9.65626 11.1004Z" fill="white"/>
<path d="M6.99954 12.2363C6.69877 12.3542 6.34362 12.2916 6.10059 12.0486L4.36694 10.315C4.17057 10.1186 3.85219 10.1186 3.65582 10.315C3.45945 10.5113 3.45945 10.8297 3.65582 11.0261L5.38947 12.7597C6.02857 13.3988 7.02012 13.4707 7.73845 12.9752L6.99954 12.2363Z" fill="white"/>
<path fill-rule="evenodd" clip-rule="evenodd" d="M16.4349 6.92902C16.6313 7.12539 16.6313 7.44377 16.4349 7.64014L11.3155 12.7595C10.5955 13.4796 9.4281 13.4796 8.70807 12.7595L6.97443 11.0259C6.77806 10.8295 6.77806 10.5112 6.97443 10.3148C7.1708 10.1184 7.48918 10.1184 7.68555 10.3148L9.41919 12.0484C9.74647 12.3757 10.2771 12.3757 10.6044 12.0484L15.7238 6.92902C15.9202 6.73265 16.2386 6.73265 16.4349 6.92902Z" fill="white"/>
</svg>
