<svg width="30" height="30" viewBox="0 0 30 30" fill="none" xmlns="http://www.w3.org/2000/svg">
<path fill-rule="evenodd" clip-rule="evenodd" d="M15 1.25C16.3807 1.25 17.5 2.36929 17.5 3.75H22.5C24.5711 3.75 26.25 5.42893 26.25 7.5V23.75C26.25 25.8211 24.5711 27.5 22.5 27.5H7.5C5.42893 27.5 3.75 25.8211 3.75 23.75V7.5C3.75 5.42893 5.42893 3.75 7.5 3.75H12.5C12.5 2.36929 13.6193 1.25 15 1.25ZM15.625 3.75C15.625 4.78553 16.4645 5.625 17.5 5.625H18.125V6.875H11.875V5.625H12.5C13.5355 5.625 14.375 4.78553 14.375 3.75C14.375 3.40482 14.6548 3.125 15 3.125C15.3452 3.125 15.625 3.40482 15.625 3.75ZM20 5.625V7.5C20 8.19036 19.4404 8.75 18.75 8.75H11.25C10.5596 8.75 10 8.19036 10 7.5V5.625H7.5C6.46447 5.625 5.625 6.46447 5.625 7.5V23.75C5.625 24.7855 6.46447 25.625 7.5 25.625H22.5C23.5355 25.625 24.375 24.7855 24.375 23.75V7.5C24.375 6.46447 23.5355 5.625 22.5 5.625H20Z" fill="#141317"/>
<path fill-rule="evenodd" clip-rule="evenodd" d="M9.0625 13.75C9.0625 13.2322 9.48223 12.8125 10 12.8125L20 12.8125C20.5178 12.8125 20.9375 13.2322 20.9375 13.75C20.9375 14.2678 20.5178 14.6875 20 14.6875L10 14.6875C9.48223 14.6875 9.0625 14.2678 9.0625 13.75Z" fill="#141317"/>
<path fill-rule="evenodd" clip-rule="evenodd" d="M9.0625 18.75C9.0625 18.2322 9.48223 17.8125 10 17.8125H15C15.5178 17.8125 15.9375 18.2322 15.9375 18.75C15.9375 19.2678 15.5178 19.6875 15 19.6875H10C9.48223 19.6875 9.0625 19.2678 9.0625 18.75Z" fill="#141317"/>
</svg>
