<svg width="20" height="20" viewBox="0 0 20 20" fill="none" xmlns="http://www.w3.org/2000/svg">
<rect width="20" height="20" rx="10" fill="#727174"/>
<path fill-rule="evenodd" clip-rule="evenodd" d="M9.99967 15.6666C13.1293 15.6666 15.6663 13.1295 15.6663 9.99992C15.6663 6.87031 13.1293 4.33325 9.99967 4.33325C6.87006 4.33325 4.33301 6.87031 4.33301 9.99992C4.33301 13.1295 6.87006 15.6666 9.99967 15.6666ZM9.99967 16.6666C13.6816 16.6666 16.6663 13.6818 16.6663 9.99992C16.6663 6.31802 13.6816 3.33325 9.99967 3.33325C6.31778 3.33325 3.33301 6.31802 3.33301 9.99992C3.33301 13.6818 6.31778 16.6666 9.99967 16.6666Z" fill="white"/>
<path fill-rule="evenodd" clip-rule="evenodd" d="M10 6.16675C10.2761 6.16675 10.5 6.39061 10.5 6.66675V9.72394C10.5 9.76814 10.5176 9.81053 10.5488 9.84179L12.0202 11.3132C12.2155 11.5085 12.2155 11.825 12.0202 12.0203C11.825 12.2156 11.5084 12.2156 11.3131 12.0203L9.84171 10.5489C9.62292 10.3301 9.5 10.0334 9.5 9.72394V6.66675C9.5 6.39061 9.72386 6.16675 10 6.16675Z" fill="white"/>
</svg>
