<svg width="24" height="24" viewBox="0 0 24 24" fill="none" xmlns="http://www.w3.org/2000/svg">
<path fill-rule="evenodd" clip-rule="evenodd" d="M12 11.5C12.8284 11.5 13.5 10.8284 13.5 10C13.5 9.17157 12.8284 8.5 12 8.5C11.1716 8.5 10.5 9.17157 10.5 10C10.5 10.8284 11.1716 11.5 12 11.5ZM15 10C15 11.6569 13.6569 13 12 13C10.3431 13 9 11.6569 9 10C9 8.34315 10.3431 7 12 7C13.6569 7 15 8.34315 15 10Z" fill="white"/>
<path fill-rule="evenodd" clip-rule="evenodd" d="M17.0111 14.2442C17.0389 14.201 17.0692 14.159 17.1018 14.1183C17.9988 12.9993 18.5344 11.5816 18.5344 10.0348C18.5344 6.42572 15.6087 3.5 11.9996 3.5C8.39057 3.5 5.46484 6.42572 5.46484 10.0348C5.46484 11.5815 6.00034 12.9991 6.89726 14.118C6.91021 14.1342 6.923 14.1504 6.93538 14.167L5.73361 15.0646L5.7271 15.0565C4.62442 13.681 3.96484 11.9349 3.96484 10.0348C3.96484 5.5973 7.56214 2 11.9996 2C16.4371 2 20.0344 5.5973 20.0344 10.0348C20.0344 11.396 19.6959 12.6781 19.0985 13.8016C18.8632 14.2442 18.5876 14.6622 18.2768 15.0507L18.2739 15.0543L18.2722 15.0565H18.2768L18.2751 15.0589C18.2751 15.0589 18.2734 15.0611 18.2722 15.0627C18.2289 15.1205 17.8872 15.5772 17.3719 16.2563C16.371 17.5754 14.7153 19.7339 13.3211 21.4393C12.631 22.2834 11.3685 22.2831 10.6788 21.4386C8.52246 18.7985 5.73361 15.0646 5.73361 15.0646L6.93538 14.167L7.0575 14.33C7.13727 14.4363 7.25386 14.5915 7.4006 14.786C7.69412 15.1752 8.10799 15.7216 8.58885 16.3501C9.55268 17.6097 10.7776 19.1883 11.8406 20.4898C11.892 20.5528 11.9485 20.5722 12.0002 20.5722C12.0519 20.5722 12.1084 20.5528 12.1598 20.4899C13.2262 19.1856 14.4536 17.6049 15.4192 16.3438C15.9009 15.7146 16.3154 15.1676 16.6094 14.7781C16.7563 14.5834 16.8731 14.4282 16.953 14.3217L17.0111 14.2442Z" fill="white"/>
</svg>
