<svg width="24" height="24" viewBox="0 0 24 24" fill="none" xmlns="http://www.w3.org/2000/svg">
<rect width="24" height="24" rx="5" fill="black"/>
<path d="M18 15C18.7956 15 19.5587 15.3161 20.1213 15.8787C20.6839 16.4413 21 17.2044 21 18C21 18.7956 20.6839 19.5587 20.1213 20.1213C19.5587 20.6839 18.7956 21 18 21C17.379 21.0018 16.7729 20.8102 16.2657 20.4518C15.7586 20.0934 15.3756 19.586 15.17 19H14V17H15.17C15.58 15.83 16.69 15 18 15ZM18 17C17.7348 17 17.4804 17.1054 17.2929 17.2929C17.1054 17.4804 17 17.7348 17 18C17 18.2652 17.1054 18.5196 17.2929 18.7071C17.4804 18.8946 17.7348 19 18 19C18.2652 19 18.5196 18.8946 18.7071 18.7071C18.8946 18.5196 19 18.2652 19 18C19 17.7348 18.8946 17.4804 18.7071 17.2929C18.5196 17.1054 18.2652 17 18 17ZM18 8C18.3793 8 18.743 7.84934 19.0112 7.58116C19.2793 7.31299 19.43 6.94926 19.43 6.57C19.43 6.19074 19.2793 5.82701 19.0112 5.55884C18.743 5.29066 18.3793 5.14 18 5.14C17.6207 5.14 17.257 5.29066 16.9888 5.55884C16.7207 5.82701 16.57 6.19074 16.57 6.57C16.57 6.94926 16.7207 7.31299 16.9888 7.58116C17.257 7.84934 17.6207 8 18 8ZM18 2.57C19.0609 2.57 20.0783 2.99143 20.8284 3.74157C21.5786 4.49172 22 5.50913 22 6.57C22 9.56 18 14 18 14C18 14 14 9.56 14 6.57C14 5.50913 14.4214 4.49172 15.1716 3.74157C15.9217 2.99143 16.9391 2.57 18 2.57ZM8.83 17H10V19H8.83C8.62438 19.586 8.24142 20.0934 7.73428 20.4518C7.22714 20.8102 6.621 21.0018 6 21C5.20435 21 4.44129 20.6839 3.87868 20.1213C3.31607 19.5587 3 18.7956 3 18C3 16.69 3.83 15.58 5 15.17V14H7V15.17C7.85 15.47 8.53 16.15 8.83 17ZM6 17C5.73478 17 5.48043 17.1054 5.29289 17.2929C5.10535 17.4804 5 17.7348 5 18C5 18.2652 5.10535 18.5196 5.29289 18.7071C5.48043 18.8946 5.73478 19 6 19C6.26521 19 6.51957 18.8946 6.7071 18.7071C6.89464 18.5196 7 18.2652 7 18C7 17.7348 6.89464 17.4804 6.7071 17.2929C6.51957 17.1054 6.26521 17 6 17ZM6 3C6.79565 3 7.55871 3.31607 8.12132 3.87868C8.68393 4.44129 9 5.20435 9 6C9 7.31 8.17 8.42 7 8.83V10H5V8.83C4.41402 8.62439 3.90661 8.24142 3.54821 7.73429C3.18981 7.22715 2.9982 6.621 3 6C3 5.20435 3.31607 4.44129 3.87868 3.87868C4.44129 3.31607 5.20435 3 6 3ZM6 5C5.73478 5 5.48043 5.10536 5.29289 5.29289C5.10535 5.48043 5 5.73478 5 6C5 6.26522 5.10535 6.51957 5.29289 6.70711C5.48043 6.89464 5.73478 7 6 7C6.26521 7 6.51957 6.89464 6.7071 6.70711C6.89464 6.51957 7 6.26522 7 6C7 5.73478 6.89464 5.48043 6.7071 5.29289C6.51957 5.10536 6.26521 5 6 5ZM11 19V17H13V19H11ZM7 13H5V11H7V13Z" fill="white"/>
</svg>
