<svg width="24" height="24" viewBox="0 0 24 24" fill="none" xmlns="http://www.w3.org/2000/svg">
<g clip-path="url(#clip0_459_315)">
<path d="M19 0H5C2.23858 0 0 2.23858 0 5V19C0 21.7614 2.23858 24 5 24H19C21.7614 24 24 21.7614 24 19V5C24 2.23858 21.7614 0 19 0Z" fill="#E8552C"/>
<path d="M18 15.0001C18.7956 15.0001 19.5587 15.3162 20.1213 15.8788C20.6839 16.4414 21 17.2045 21 18.0001C21 18.7957 20.6839 19.5588 20.1213 20.1214C19.5587 20.684 18.7956 21.0001 18 21.0001C17.379 21.0019 16.7729 20.8103 16.2657 20.4519C15.7586 20.0935 15.3756 19.5861 15.17 19.0001H14V17.0001H15.17C15.58 15.8301 16.69 15.0001 18 15.0001ZM18 17.0001C17.7348 17.0001 17.4804 17.1055 17.2929 17.293C17.1054 17.4805 17 17.7349 17 18.0001C17 18.2653 17.1054 18.5197 17.2929 18.7072C17.4804 18.8947 17.7348 19.0001 18 19.0001C18.2652 19.0001 18.5196 18.8947 18.7071 18.7072C18.8946 18.5197 19 18.2653 19 18.0001C19 17.7349 18.8946 17.4805 18.7071 17.293C18.5196 17.1055 18.2652 17.0001 18 17.0001ZM18 8.00007C18.3793 8.00007 18.743 7.84941 19.0112 7.58123C19.2793 7.31306 19.43 6.94933 19.43 6.57007C19.43 6.19081 19.2793 5.82708 19.0112 5.55891C18.743 5.29073 18.3793 5.14007 18 5.14007C17.6207 5.14007 17.257 5.29073 16.9888 5.55891C16.7207 5.82708 16.57 6.19081 16.57 6.57007C16.57 6.94933 16.7207 7.31306 16.9888 7.58123C17.257 7.84941 17.6207 8.00007 18 8.00007ZM18 2.57007C19.0609 2.57007 20.0783 2.9915 20.8284 3.74164C21.5786 4.49179 22 5.5092 22 6.57007C22 9.56007 18 14.0001 18 14.0001C18 14.0001 14 9.56007 14 6.57007C14 5.5092 14.4214 4.49179 15.1716 3.74164C15.9217 2.9915 16.9391 2.57007 18 2.57007ZM8.83001 17.0001H10V19.0001H8.83001C8.62439 19.5861 8.24143 20.0935 7.73429 20.4519C7.22715 20.8103 6.62101 21.0019 6.00001 21.0001C5.20436 21.0001 4.4413 20.684 3.87869 20.1214C3.31608 19.5588 3.00001 18.7957 3.00001 18.0001C3.00001 16.6901 3.83001 15.5801 5.00001 15.1701V14.0001H7.00001V15.1701C7.85001 15.4701 8.53001 16.1501 8.83001 17.0001ZM6.00001 17.0001C5.73479 17.0001 5.48044 17.1055 5.2929 17.293C5.10536 17.4805 5.00001 17.7349 5.00001 18.0001C5.00001 18.2653 5.10536 18.5197 5.2929 18.7072C5.48044 18.8947 5.73479 19.0001 6.00001 19.0001C6.26522 19.0001 6.51958 18.8947 6.70711 18.7072C6.89465 18.5197 7.00001 18.2653 7.00001 18.0001C7.00001 17.7349 6.89465 17.4805 6.70711 17.293C6.51958 17.1055 6.26522 17.0001 6.00001 17.0001ZM6.00001 3.00007C6.79566 3.00007 7.55872 3.31614 8.12133 3.87875C8.68394 4.44136 9.00001 5.20442 9.00001 6.00007C9.00001 7.31007 8.17001 8.42007 7.00001 8.83007V10.0001H5.00001V8.83007C4.41403 8.62446 3.90662 8.24149 3.54822 7.73436C3.18982 7.22722 2.99821 6.62107 3.00001 6.00007C3.00001 5.20442 3.31608 4.44136 3.87869 3.87875C4.4413 3.31614 5.20436 3.00007 6.00001 3.00007ZM6.00001 5.00007C5.73479 5.00007 5.48044 5.10543 5.2929 5.29296C5.10536 5.4805 5.00001 5.73485 5.00001 6.00007C5.00001 6.26529 5.10536 6.51964 5.2929 6.70718C5.48044 6.89471 5.73479 7.00007 6.00001 7.00007C6.26522 7.00007 6.51958 6.89471 6.70711 6.70718C6.89465 6.51964 7.00001 6.26529 7.00001 6.00007C7.00001 5.73485 6.89465 5.4805 6.70711 5.29296C6.51958 5.10543 6.26522 5.00007 6.00001 5.00007ZM11 19.0001V17.0001H13V19.0001H11ZM7.00001 13.0001H5.00001V11.0001H7.00001V13.0001Z" fill="white"/>
</g>
<defs>
<clipPath id="clip0_459_315">
<rect width="24" height="24" fill="white"/>
</clipPath>
</defs>
</svg>
