<svg width="16" height="16" viewBox="0 0 16 16" fill="none" xmlns="http://www.w3.org/2000/svg">
<path fill-rule="evenodd" clip-rule="evenodd" d="M10.1128 1.173C11.0891 0.196688 12.672 0.196688 13.6484 1.173L14.8269 2.35151C15.8032 3.32782 15.8032 4.91073 14.8269 5.88704L6.16644 14.5475C6.05011 14.6638 5.90194 14.7431 5.74062 14.7754L1.3212 15.6592C0.738101 15.7759 0.224001 15.2618 0.340621 14.6787L1.2245 10.2592C1.25677 10.0979 1.33607 9.94975 1.4524 9.83342L10.1128 1.173ZM12.7645 2.05688L13.943 3.23539C14.4311 3.72355 14.4311 4.515 13.943 5.00316L12.6171 6.32901L9.67085 3.38273L10.9967 2.05688C11.4849 1.56873 12.2763 1.56873 12.7645 2.05688ZM8.78697 4.26662L2.42549 10.6281L1.68892 14.3109L5.37177 13.5744L11.7332 7.21289L8.78697 4.26662Z" fill="#CFCFCF"/>
</svg>
