<svg width="24" height="24" viewBox="0 0 24 24" fill="none" xmlns="http://www.w3.org/2000/svg">
<path fill-rule="evenodd" clip-rule="evenodd" d="M8.72781 6.7027L7.22017 4.64684C6.96106 4.29349 6.47139 4.20344 6.10352 4.44148C3.98907 5.80965 3.25549 8.02492 4.21386 9.7655C5.10106 11.3768 6.46384 13.3426 8.54585 15.4246C10.6279 17.5066 12.5937 18.8694 14.205 19.7566C15.9456 20.715 18.1608 19.9814 19.529 17.867C19.767 17.4991 19.677 17.0094 19.3236 16.7503L17.2678 15.2427C16.8143 14.9101 16.2129 14.8591 15.7099 15.1106L14.8905 15.5204C14.3084 15.8114 13.5232 15.9079 12.786 15.5286C12.2251 15.24 11.3357 14.679 10.3136 13.6569C9.29151 12.6347 8.73045 11.7454 8.44188 11.1845C8.06258 10.4472 8.15909 9.66206 8.45011 9.08002L8.85984 8.26057C9.11133 7.75758 9.06036 7.15618 8.72781 6.7027ZM5.28864 3.18212C2.74813 4.82598 1.44037 7.83826 2.89987 10.489C3.8524 12.219 5.29923 14.2993 7.48519 16.4853C9.67115 18.6712 11.7515 20.1181 13.4815 21.0706C16.1322 22.5301 19.1445 21.2223 20.7884 18.6818C21.4579 17.647 21.2046 16.2696 20.2107 15.5407L18.1548 14.0331C17.2479 13.368 16.0451 13.266 15.0391 13.769L14.2196 14.1787C13.9824 14.2973 13.708 14.3161 13.4722 14.1948C13.0425 13.9737 12.2811 13.503 11.3743 12.5962C10.4675 11.6894 9.99677 10.928 9.77572 10.4983C9.65439 10.2625 9.67314 9.98806 9.79175 9.75084L10.2015 8.93139C10.7045 7.92542 10.6025 6.72262 9.93741 5.81565L8.42978 3.75979C7.70089 2.76584 6.32346 2.51253 5.28864 3.18212Z" fill="#727174"/>
</svg>
