<svg width="30" height="30" viewBox="0 0 30 30" fill="none" xmlns="http://www.w3.org/2000/svg">
<path fill-rule="evenodd" clip-rule="evenodd" d="M15 15.625C16.7259 15.625 18.125 14.2259 18.125 12.5C18.125 10.7741 16.7259 9.375 15 9.375C13.2741 9.375 11.875 10.7741 11.875 12.5C11.875 14.2259 13.2741 15.625 15 15.625ZM15 17.5C17.7614 17.5 20 15.2614 20 12.5C20 9.73858 17.7614 7.5 15 7.5C12.2386 7.5 10 9.73858 10 12.5C10 15.2614 12.2386 17.5 15 17.5Z" fill="black"/>
<path fill-rule="evenodd" clip-rule="evenodd" d="M23.1985 24.436C25.8339 22.1443 27.5 18.7667 27.5 15C27.5 8.09644 21.9036 2.5 15 2.5C8.09644 2.5 2.5 8.09644 2.5 15C2.5 18.7667 4.16606 22.1443 6.80145 24.436C8.99617 26.3445 11.8631 27.5 15 27.5C18.0203 27.5 20.7904 26.4288 22.9512 24.6456C23.0345 24.5768 23.117 24.5069 23.1985 24.436ZM15.4107 25.6172C15.2745 25.6224 15.1375 25.625 15 25.625C14.9885 25.625 14.9771 25.625 14.9656 25.6249C14.8626 25.6246 14.7598 25.6228 14.6575 25.6196C12.629 25.5553 10.744 24.9225 9.15655 23.8752C10.3706 21.9224 12.5354 20.625 15 20.625C17.4645 20.625 19.6294 21.9224 20.8434 23.8752C19.2738 24.9108 17.4132 25.5411 15.4107 25.6172ZM22.3187 22.7025C20.755 20.3219 18.0611 18.75 15 18.75C11.9389 18.75 9.245 20.3219 7.6813 22.7025C5.64469 20.7667 4.375 18.0316 4.375 15C4.375 9.13197 9.13197 4.375 15 4.375C20.868 4.375 25.625 9.13197 25.625 15C25.625 18.0316 24.3553 20.7667 22.3187 22.7025Z" fill="black"/>
</svg>
