<svg width="31" height="30" viewBox="0 0 31 30" fill="none" xmlns="http://www.w3.org/2000/svg">
<path fill-rule="evenodd" clip-rule="evenodd" d="M18 9.375H13C11.9645 9.375 11.125 10.2145 11.125 11.25V18.75C11.125 19.7855 11.9645 20.625 13 20.625H18C19.0355 20.625 19.875 19.7855 19.875 18.75V11.25C19.875 10.2145 19.0355 9.375 18 9.375ZM13 7.5C10.9289 7.5 9.25 9.17893 9.25 11.25V18.75C9.25 20.8211 10.9289 22.5 13 22.5H18C20.0711 22.5 21.75 20.8211 21.75 18.75V11.25C21.75 9.17893 20.0711 7.5 18 7.5H13Z" fill="white"/>
<path fill-rule="evenodd" clip-rule="evenodd" d="M3.3125 15C3.3125 14.4822 3.73223 14.0625 4.25 14.0625H26.75C27.2678 14.0625 27.6875 14.4822 27.6875 15C27.6875 15.5178 27.2678 15.9375 26.75 15.9375H4.25C3.73223 15.9375 3.3125 15.5178 3.3125 15Z" fill="white"/>
<path fill-rule="evenodd" clip-rule="evenodd" d="M3.3125 6.25C3.3125 4.35152 4.85152 2.8125 6.75 2.8125H9.25C9.76777 2.8125 10.1875 3.23223 10.1875 3.75C10.1875 4.26777 9.76777 4.6875 9.25 4.6875H6.75C5.88706 4.6875 5.1875 5.38706 5.1875 6.25V8.75C5.1875 9.26777 4.76777 9.6875 4.25 9.6875C3.73223 9.6875 3.3125 9.26777 3.3125 8.75V6.25Z" fill="white"/>
<path fill-rule="evenodd" clip-rule="evenodd" d="M3.3125 23.75C3.3125 25.6485 4.85152 27.1875 6.75 27.1875H9.25C9.76777 27.1875 10.1875 26.7678 10.1875 26.25C10.1875 25.7322 9.76777 25.3125 9.25 25.3125H6.75C5.88706 25.3125 5.1875 24.6129 5.1875 23.75V21.25C5.1875 20.7322 4.76777 20.3125 4.25 20.3125C3.73223 20.3125 3.3125 20.7322 3.3125 21.25V23.75Z" fill="white"/>
<path fill-rule="evenodd" clip-rule="evenodd" d="M27.6875 23.75C27.6875 25.6485 26.1485 27.1875 24.25 27.1875H21.75C21.2322 27.1875 20.8125 26.7678 20.8125 26.25C20.8125 25.7322 21.2322 25.3125 21.75 25.3125H24.25C25.1129 25.3125 25.8125 24.6129 25.8125 23.75V21.25C25.8125 20.7322 26.2322 20.3125 26.75 20.3125C27.2678 20.3125 27.6875 20.7322 27.6875 21.25V23.75Z" fill="white"/>
<path fill-rule="evenodd" clip-rule="evenodd" d="M27.6875 6.25C27.6875 4.35152 26.1485 2.8125 24.25 2.8125H21.75C21.2322 2.8125 20.8125 3.23223 20.8125 3.75C20.8125 4.26777 21.2322 4.6875 21.75 4.6875H24.25C25.1129 4.6875 25.8125 5.38706 25.8125 6.25V8.75C25.8125 9.26777 26.2322 9.6875 26.75 9.6875C27.2678 9.6875 27.6875 9.26777 27.6875 8.75V6.25Z" fill="white"/>
</svg>
